<?xml version="1.0" encoding="UTF-8" standalone="no"?>
<!-- Generator: Adobe Illustrator 27.4.1, SVG Export Plug-In . SVG Version: 6.00 Build 0)  -->

<svg
   version="1.1"
   id="Calque_1"
   x="0px"
   y="0px"
   viewBox="0 0 102.58547 36.525002"
   xml:space="preserve"
   sodipodi:docname="ba9b87693c16f041767fcb3a8123765f.svg"
   width="102.58547"
   height="36.525002"
   xmlns:inkscape="http://www.inkscape.org/namespaces/inkscape"
   xmlns:sodipodi="http://sodipodi.sourceforge.net/DTD/sodipodi-0.dtd"
   xmlns="http://www.w3.org/2000/svg"
   xmlns:svg="http://www.w3.org/2000/svg"><defs
   id="defs12" /><sodipodi:namedview
   id="namedview10"
   pagecolor="#ffffff"
   bordercolor="#666666"
   borderopacity="1.0"
   inkscape:pageshadow="2"
   inkscape:pageopacity="0.0"
   inkscape:pagecheckerboard="0" />
<style
   type="text/css"
   id="style2">
	.st0{fill:#FFFFFF;}
</style>
<g
   id="Symbols"
   transform="translate(0.05945734)">
	<g
   id="components_x2F_footer_x2F_desktop"
   transform="translate(-550,-402)">
		<g
   id="Group-3"
   transform="translate(85,379)">
			<g
   id="meetup"
   transform="translate(465,23)">
				<path
   id="Shape"
   class="st0"
   d="m 60.4,19.7 c -0.1,0.2 -0.2,0.4 -0.3,0.5 -0.9,1.3 -1.9,2.5 -3.3,3.3 -1.9,1.1 -3.9,1.6 -6,1.1 -1.1,-0.2 -2.1,-0.8 -3.1,-1.3 -0.2,-0.1 -0.4,-0.1 -0.6,0 -0.9,0.5 -1.7,1.1 -2.7,1.5 -1.7,0.7 -3.4,1.1 -5.2,0.6 -1.1,-0.3 -2.1,-0.9 -3,-1.7 -0.6,-0.5 -0.7,-0.5 -1.3,0 -1.1,0.9 -2.5,1.5 -3.8,2 -1.7,0.6 -3.5,1 -5.3,1.2 -2.2,0.2 -4.2,-0.2 -5.7,-2 -1.2,-1.4 -1.5,-3.1 -0.8,-4.9 0.8,-1.9 1.7,-3.8 2.6,-5.7 0.5,-1 0.9,-2 1.3,-2.9 0.1,-0.2 0.1,-0.4 0.1,-0.6 0,-0.4 0.1,-0.8 -0.3,-1 -0.4,-0.2 -0.9,-0.2 -1.3,0.2 -0.4,0.5 -0.8,1.1 -1.1,1.6 -1,1.9 -1.9,3.8 -2.9,5.7 -0.7,1.4 -1.4,2.9 -2.2,4.3 -0.7,1.3 -2,1.9 -3.4,1.3 -0.5,-0.2 -0.8,-0.5 -0.8,-1.1 -0.1,-0.8 0.1,-1.4 0.4,-2.1 0.6,-1.5 1.2,-2.9 1.8,-4.4 0.3,-0.8 0.6,-1.6 0.9,-2.4 0.2,-0.6 0.3,-1.1 0,-1.7 -0.2,-0.4 -0.5,-0.7 -1.1,-0.7 -0.6,0 -1,0.3 -1.2,0.9 -0.7,1.8 -1.5,3.7 -2.2,5.5 C 9,19.1 8.2,21.3 7.3,23.5 7,24.3 6.5,25 5.6,25.4 5.2,25.6 4.7,25.7 4.2,25.7 2.7,25.7 1.5,25.2 0.6,24 -0.1,23 -0.2,21.9 0.1,20.8 0.4,19.7 0.7,18.7 1,17.6 c 0.3,-1 0.6,-2 0.9,-3 C 2.2,13.7 2.5,12.7 2.8,11.8 3.6,10.2 4.1,8.3 5,6.6 5.7,5.5 6.8,4.8 8,4.5 c 1.3,-0.4 2.4,0.1 3.6,0.7 0.4,0.2 0.8,0.4 1.3,0.6 0.6,0.3 1.2,0.1 1.7,-0.3 0.4,-0.3 0.8,-0.7 1.2,-1 0.9,-0.9 2.9,-1.1 3.9,0 0.2,0.2 0.5,0.4 0.7,0.7 0.5,0.5 0.7,0.5 1.3,0.2 1.4,-1 2.9,-0.9 4.3,-0.4 0.8,0.3 1.3,1 1.7,1.8 0.5,1.2 0.3,2.4 -0.2,3.6 -0.9,2.1 -1.8,4.2 -2.6,6.4 -0.5,1.3 -0.9,2.6 -1.3,3.9 -0.1,0.5 -0.1,1.2 0,1.7 0.2,0.8 1,1.1 1.7,1.2 1.2,0.1 2.3,-0.1 3.4,-0.4 0.9,-0.3 1.9,-0.6 2.8,-0.9 0.4,-0.2 0.9,-0.4 1.3,-0.6 0.4,-0.2 0.4,-0.5 0.2,-0.8 -0.4,-0.7 -0.8,-1.4 -1.1,-2.1 -0.7,-1.5 -1.3,-3.1 -1.2,-4.8 0.1,-1.5 0.7,-2.8 2.1,-3.6 2,-1.2 3.7,-0.8 5.2,0.9 1.3,1.5 1.7,3.3 1.2,5.3 -0.3,1.1 -0.8,2.1 -1.2,3.2 -0.1,0.3 0,0.5 0.1,0.6 0.9,0.8 1.8,1.4 2.9,1.9 0.4,0.2 0.8,0.3 1.3,0.4 0.9,0.2 1.8,0 2.6,-0.6 0.4,-0.3 0.4,-0.5 0.1,-0.8 -1.8,-2.5 -2.5,-5.2 -2,-8.2 0.2,-1.1 0.7,-2.2 1.9,-2.5 0.7,-0.2 1.6,-0.2 2.4,-0.1 1.3,0.2 2.4,0.7 3.2,1.7 0.9,1.3 1.2,2.7 0.8,4.3 -0.3,1.1 -0.9,2.1 -1.5,3 -0.3,0.4 -0.3,0.7 0.1,0.9 0.5,0.4 1.1,0.8 1.7,1 1.3,0.5 2.7,0.4 4,0 1.5,-0.5 2.5,-1.4 3.1,-2.9 0.7,-1.7 0.7,-3.5 0.7,-5.3 0,-1.4 -0.1,-2.8 -0.1,-4.2 0,-0.5 -0.1,-0.5 -0.6,-0.4 -1.5,0.4 -2.7,0.6 -4,0.9 -0.4,0.1 -0.8,0.1 -1.2,0.2 -0.9,0.2 -1.6,-0.2 -1.6,-1.2 -0.1,-1 -0.2,-2 -0.3,-3.1 0,-0.1 0,-0.1 0,-0.2 -0.1,-1.2 0.2,-1.9 1.7,-1.8 1.5,0.1 3,0.1 4.5,0.2 0.7,0 1,-0.1 1,-0.9 0,-0.6 0.1,-1.1 0.1,-1.7 0.1,-0.8 0.2,-1 1.1,-1 0.5,0 1,0.1 1.5,0.2 0.7,0.2 1.1,0.7 1.1,1.4 0,0.6 0,1.2 0,1.7 0,0.4 0.1,0.6 0.6,0.7 1.3,0.1 2.6,0.3 4,0.5 0.6,0.1 1,0.3 1.1,0.8 0.1,0.8 0,1.4 -0.6,1.6 -0.9,0.3 -1.7,0.5 -2.6,0.8 -0.6,0.2 -1.3,0.2 -1.9,0.3 -0.4,0.1 -0.6,0.3 -0.6,0.8 0,2.3 0,4.7 0,7 0,1.2 0.2,2.4 0.7,3.6 0.4,0.9 1.1,1.3 2.1,1.1 1.5,-0.2 2.8,-0.8 4,-1.7 0.6,-0.5 1.1,-1.1 1.1,-2 0.1,-1.6 0.1,-3.2 0.2,-4.8 0,-0.5 0.1,-0.9 0.2,-1.4 0.1,-0.2 0.4,-0.6 0.6,-0.6 1.2,0 2.4,0 3.6,0.1 0.7,0.1 1.3,0.8 1.2,1.6 -0.1,1.1 -0.2,2.2 -0.3,3.3 -0.1,1.4 -0.3,2.7 -0.4,4.1 -0.1,1.4 1,2.1 2.1,2.1 0.9,0 1.5,-0.3 1.8,-1.3 0.4,-1 0.6,-2.1 0.8,-3.2 0.2,-1.5 0.4,-3.1 0.5,-4.6 0.1,-0.6 0.5,-1.1 1,-1.2 0.6,-0.1 1.3,0.1 1.5,0.6 0.2,0.4 0.1,1 0.1,1.4 -0.2,1.8 -0.5,3.5 -0.7,5.2 -0.1,1.1 0.5,1.8 1.5,2.2 0.5,0.2 1.1,0.3 1.6,0.3 0.9,0.1 1.6,-0.6 1.8,-1.7 0.2,-0.9 0.2,-1.8 0.3,-2.8 0.1,-1.1 0.1,-2.2 0.3,-3.3 0.3,-1.6 1.3,-3 3.2,-3.5 1.1,-0.3 2.3,-0.3 3.5,-0.2 1.7,0.2 3.6,1.4 4.1,3.4 0.4,1.5 0.3,3 -0.2,4.5 -0.6,1.7 -1.6,3 -3.1,4 -0.1,0.1 -0.2,0.3 -0.3,0.4 0.2,0.1 0.4,0.2 0.6,0.2 1.8,0 3.4,-0.4 5,-1.4 0.3,-0.2 0.7,-0.4 1.1,-0.5 0.3,-0.2 0.5,0 0.4,0.3 -0.2,0.5 -0.3,1 -0.6,1.4 -1.3,1.7 -3.1,2.4 -5.1,2.6 -0.9,0.1 -1.8,-0.1 -2.6,-0.1 -0.7,0 -1.3,-0.1 -2,-0.1 -0.3,0 -0.5,0.1 -0.6,0.5 -0.5,2.2 -0.8,4.4 -1.1,6.6 -0.2,1.4 -0.4,2.8 -0.8,4.2 -0.2,0.7 -0.8,1.3 -1.6,1.4 -0.5,0.1 -0.8,-0.1 -1,-0.6 -0.1,-0.4 -0.3,-0.8 -0.3,-1.2 -0.2,-2 -0.1,-3.9 0.2,-5.8 0.1,-1 0.2,-2 0.3,-3 0.1,-0.7 0.2,-1.4 0.2,-2.1 0.1,-0.6 -0.1,-0.7 -0.6,-0.8 -1.1,-0.2 -2.2,-0.4 -3.3,-0.7 -0.7,-0.2 -1.3,0.1 -1.8,0.6 -0.7,0.7 -1.4,1.3 -2.3,1.7 -1.1,0.5 -2.2,0.4 -3.3,0.2 -1.6,-0.3 -2.8,-1.1 -3.7,-2.4 -0.3,-0.4 -0.5,-0.9 -0.7,-1.3 -0.1,-0.3 -0.2,-0.4 -0.5,-0.2 -1.1,0.5 -2.1,1.1 -3.2,1.5 -1.2,0.5 -2.5,0.7 -3.8,0.3 -1.3,-0.3 -2.2,-1.2 -3,-2.2 -0.4,-0.1 -0.6,-0.4 -0.9,-0.8 z m 36.1,-5 c 0,-0.2 0,-0.3 0,-0.5 -0.2,-1 -1.2,-1.4 -2,-0.8 -0.4,0.3 -0.7,0.6 -0.9,1 -0.8,1.3 -1.2,2.7 -1.6,4.1 -0.1,0.4 -0.2,0.7 -0.2,1.1 0,0.7 0.4,0.9 1,0.5 1.2,-0.8 2.1,-1.8 2.8,-3 0.5,-0.7 0.9,-1.5 0.9,-2.4 z m -47.1,0.7 c 0,-0.7 -0.1,-1.3 -0.7,-1.8 -0.3,-0.3 -0.6,-0.4 -1,-0.3 -0.5,0.2 -0.8,0.5 -0.8,1.1 -0.1,1.2 0.4,2.2 0.9,3.1 0.3,0.5 0.5,0.5 0.9,0 0.5,-0.6 0.7,-1.3 0.7,-2.1 z M 37.5,15.2 c -0.1,-0.4 -0.2,-0.9 -0.4,-1.3 -0.2,-0.5 -0.8,-0.7 -1.4,-0.6 -0.6,0.1 -0.8,0.4 -0.7,1.1 0.1,0.6 0.2,1.2 0.3,1.8 0.1,0.4 0.3,0.8 0.5,1.2 0.3,0.5 0.6,0.5 0.9,0 0.5,-0.6 0.8,-1.4 0.8,-2.2 z" />
			</g>
		</g>
	</g>
</g>
</svg>
