<?xml version="1.0" encoding="UTF-8" standalone="no"?>
<!-- Generator: Adobe Illustrator 27.4.1, SVG Export Plug-In . SVG Version: 6.00 Build 0)  -->

<svg
   version="1.1"
   id="Calque_1"
   x="0px"
   y="0px"
   viewBox="0 0 89.518333 66.300003"
   xml:space="preserve"
   sodipodi:docname="f367e21c2b4bdf0f86dfc7a1f1b0b4a1.svg"
   width="89.518333"
   height="66.300003"
   xmlns:inkscape="http://www.inkscape.org/namespaces/inkscape"
   xmlns:sodipodi="http://sodipodi.sourceforge.net/DTD/sodipodi-0.dtd"
   xmlns="http://www.w3.org/2000/svg"
   xmlns:svg="http://www.w3.org/2000/svg"><defs
   id="defs22" /><sodipodi:namedview
   id="namedview20"
   pagecolor="#ffffff"
   bordercolor="#666666"
   borderopacity="1.0"
   inkscape:pageshadow="2"
   inkscape:pageopacity="0.0"
   inkscape:pagecheckerboard="0" />
<style
   type="text/css"
   id="style2">
	.st0{filter:url(#Adobe_OpacityMaskFilter);}
	.st1{fill-rule:evenodd;clip-rule:evenodd;fill:#FFFFFF;}
	.st2{mask:url(#mask-2_00000126324479881949365190000004908624486108098729_);fill-rule:evenodd;clip-rule:evenodd;fill:#FFFFFF;}
</style>
<g
   id="Symbols"
   transform="translate(-0.11949385)">
	<g
   id="components_x2F_footer_x2F_desktop"
   transform="translate(-399,-379)">
		<g
   id="Group-3"
   transform="translate(85,379)">
			<g
   id="nick"
   transform="translate(314)">
				<g
   id="Clip-2">
				</g>
				<defs
   id="defs8">
					<filter
   id="Adobe_OpacityMaskFilter"
   filterUnits="userSpaceOnUse"
   x="0"
   y="0"
   width="89.699997"
   height="66.300003">
						<feColorMatrix
   type="matrix"
   values="1 0 0 0 0  0 1 0 0 0  0 0 1 0 0  0 0 0 1 0"
   id="feColorMatrix5" />
					</filter>
				</defs>
				
					<mask
   maskUnits="userSpaceOnUse"
   x="0"
   y="0"
   width="89.7"
   height="66.3"
   id="mask-2_00000126324479881949365190000004908624486108098729_">
					<g
   class="st0"
   id="g11">
						<polygon
   id="path-1_00000093892030333928869400000006566759691918084481_"
   class="st1"
   points="89.7,66.3 0,66.3 0,0 89.7,0 " />
					</g>
				</mask>
				<path
   id="Fill-1"
   class="st2"
   d="m 60.4,40.2 c 0,1.3 -1.5,1.9 -2.5,2.4 -1.3,0.5 -1.6,-1.1 -2.3,-1.7 L 53.1,37 52.9,37.4 c -0.1,1.4 -0.2,2.8 -0.6,4.1 -0.6,0.6 -1.7,0.2 -2.5,0.2 -0.5,-0.2 -1.3,-0.1 -1.5,-0.8 l 2,-13.8 c 0.2,-0.8 0.2,-1.6 0.6,-2.2 1.1,-0.4 2.7,-0.4 3.7,0.2 0.4,1.1 -0.2,2.2 -0.2,3.4 -0.1,0.6 -0.3,1.2 -0.4,1.9 l 0.2,0.2 c 2.5,-1.3 3,-4.1 3.9,-6.4 0.6,-0.4 1.5,-0.1 2.1,-0.1 0.6,0.1 1.2,0.3 1.5,0.8 -0.6,3.6 -2.1,7.1 -5.5,9.2 1.3,2.1 3,4 4.2,6.1 z m -16,-10.3 c -1.4,1.6 -1.6,3.8 -1.9,5.9 0.1,0.9 -0.2,2 0.6,2.6 1.4,-0.1 0.8,-1.7 1.7,-2.3 0.8,-0.6 2.1,-0.8 3,-0.3 0.5,0.7 0.2,1.7 0.1,2.5 -0.5,1.8 -1.6,3.7 -3.6,4.5 -1,0.4 -2.2,0.6 -3.3,0.3 -3.2,-1.7 -3,-5.5 -2.8,-8.9 0.6,-3.4 2.3,-7.5 6.2,-8.4 1.5,-0.4 3.3,0 4,1.5 0.4,1.2 0.6,2.8 -0.1,3.9 -0.8,0.8 -2.1,0.9 -3.1,0.6 -0.7,-0.5 0.5,-2 -0.8,-1.9 z m -6.3,-0.2 -2,13.7 c -1.1,0.9 -3,0.6 -4.2,0 -0.7,-0.7 -0.1,-1.7 -0.2,-2.5 0.7,-4.4 1.2,-8.9 2.3,-13.3 0.9,-0.9 2.5,-0.7 3.7,-0.4 0.2,0.2 0.6,0.3 0.6,0.7 z m -7.6,4.2 -1.3,8.7 c 0,0.6 0.6,1.1 0.1,1.7 -1.2,0.6 -2.9,0.5 -4.1,0 L 24.7,43.5 C 23.6,40 22.6,36.5 21.5,33.1 L 21.3,33.5 20,45.1 c -0.1,0.5 -0.6,0.7 -1,0.8 -1.2,0.1 -2.8,0.3 -3.5,-0.8 l -0.1,-0.8 c 0.6,-6.5 1.5,-12.9 2.7,-19.1 0.1,-0.4 0.3,-0.9 0.8,-1 1.6,-0.2 3.2,0.2 4.4,1 1.2,2.3 2,4.7 2.7,7.1 l 0.2,-0.2 1.4,-8.1 c 0.1,-0.5 0.5,-0.9 1,-1 1.2,0 2.9,-0.4 3.5,0.7 -0.5,3.5 -1.2,6.8 -1.6,10.2 z m 36.9,12.7 c -0.6,-0.3 -2.8,-1.4 -3.2,-1.9 -0.4,-0.4 -1.1,-1.2 -1.3,-2 -0.5,-2.4 1.9,-4.7 2.7,-6.8 1,-2.8 -1.2,-4.6 -1,-7.3 0.1,-1.1 0.4,-2.3 0.5,-3.4 0.1,-0.9 -0.8,-2.6 -1,-3.5 -0.4,-2 1.3,-3.1 2.5,-4.4 0.5,-0.5 0.8,-1.8 0,-2.2 -0.7,-0.3 -1.9,0.5 -2.4,0.9 -1.9,1.4 -3,3.3 -4.7,4.6 -0.1,0 -0.2,0 -0.3,0 -0.5,-0.7 0.1,-1.8 -0.4,-2.6 0,-0.3 -1,-0.4 -1.6,0.1 -0.3,0.2 -1.7,0.8 -2,0.6 -0.8,-0.6 -1.7,-1.2 -1.6,-2.7 0.2,-1.3 0.2,-2.7 0.8,-3.8 0,-0.5 -0.2,-0.9 -0.6,-0.8 -0.4,0.2 -0.8,0.5 -0.8,1.1 0.2,0.9 -0.3,1.6 -0.8,2.2 -0.6,0.7 -1.1,0.4 -1.3,-0.3 -0.8,-0.5 -0.7,-1.8 -0.7,-3.1 -0.1,-0.1 -0.3,0 -0.3,-0.3 0.3,-0.4 -0.3,-0.2 -0.1,-0.6 -0.1,-0.7 -0.5,-0.8 -0.9,-1.1 -3.2,-2 -5.8,0.9 -6.1,3.9 -0.2,0 -0.3,-0.1 -0.5,-0.2 -0.4,-0.4 -0.1,-0.4 -1.1,-0.6 -1,-0.1 -1.4,-0.5 -2,-0.4 -0.6,0.1 -1.4,0.4 -2,0.6 -0.6,0.2 -0.7,0 -0.9,0.4 -0.2,0.5 -0.3,1.3 -1,1.3 -0.7,0 -1,-0.6 -1.4,-1.2 -0.5,-0.6 -1.1,-0.8 -1.2,-1.1 -0.1,-0.2 0,-0.5 0,-1.1 0,-0.6 -0.1,-1.1 0.1,-1.4 C 33,9.2 33,9 32.8,8.4 32.6,7.8 32.4,7.1 32.5,6.4 32.6,5.7 32.9,5.4 32.4,5 31.9,4.6 31.3,4.7 31.3,4.7 c 0,0 -1.2,0.2 -1.5,0.7 -0.2,0.5 -0.1,1 0.2,1.9 0.3,0.9 0.7,1.8 0.7,1.8 l -0.2,2.2 c 0,0 -0.9,0.4 -1.8,1.1 L 27.8,13 c 0,0 -1.6,3.1 -2.5,3.4 -1.5,-0.5 -3.1,0.6 -2.8,1.3 0.5,0.3 0.6,0.9 0.6,1.4 -0.4,0.2 -0.8,0.3 -1.2,0.3 -1.7,0 -4.5,0.4 -5.5,2 -0.1,0.2 -0.2,0.3 -0.3,0.5 -0.9,-0.8 0,-0.7 -1.1,-0.3 -0.4,0.1 -1.8,-1.9 -2.2,-2.2 -0.9,-0.8 -2.3,-1.9 -3.5,-2 -1.7,-0.2 -3.7,1.8 -2.8,3.7 0.7,1.3 1.8,0 3,0.5 2.7,1.2 2.6,4.2 3.2,6.5 0.3,1.3 1.3,2.4 1.3,3.6 0,0.4 -0.1,0.8 -0.3,1.2 -0.8,1.6 -2.3,2.3 -2.5,4.4 -0.2,2.1 0.9,3.9 1.9,5.6 0.9,1.6 0.8,3.6 1.8,5.1 1.2,1.7 3.5,3 4.3,4.8 1.5,3.4 1.9,0.2 -1,5.5 -0.8,1.5 -1.6,2.3 -1.6,2.3 0,0 -1.9,1.9 -1.5,3.5 0.4,1.6 1.9,2.4 3.5,2.2 1.6,-0.2 2.5,-2.8 2.5,-2.8 0,0 0.3,-3.5 0.2,-4 -0.1,-0.5 -0.2,-1.8 -0.2,-1.8 l 0.6,-1.2 c 0,0 1.1,-0.4 1.5,-0.9 0.4,-0.5 1,-1.3 1,-1.3 0,0 1.2,-1.3 1.7,-1.2 0.5,0 1.4,-0.6 1.4,-0.6 l 1,-1.1 c 0,0 1.2,-0.2 2.2,0.4 1,0.6 1.5,1 2.2,0.9 0.7,-0.1 2.3,-0.2 2.3,-0.2 0,0 0.6,-0.5 1.2,-0.2 0.7,0.2 1.5,0.5 2,1.2 0,0 0.1,0.1 0.1,0.2 0,0 0,0 0,0.1 0,0 0,0.1 0.1,0.1 0,0 0,0 0,0.1 0,0.1 0,0.1 0.1,0.2 0,0 0,0 0,0.1 0,0.1 0.1,0.2 0.1,0.3 0,0 0,0.1 0,0.1 0,0.1 0,0.2 0.1,0.3 0,0 0,0.1 0,0.1 0,0.1 0,0.2 0.1,0.3 0,0.1 0.1,0.3 0.1,0.4 0,0.1 0.1,0.2 0.1,0.3 0,0 0,0.1 0,0.1 0,0.1 0.1,0.2 0.1,0.3 0,0 0,0.1 0,0.1 0,0.1 0.1,0.2 0.1,0.3 0,0 0,0 0,0 0,0.1 0.1,0.2 0.1,0.4 0,0 0,0 0,0.1 0,0.1 0.1,0.2 0.1,0.3 0,0 0,0.1 0,0.1 0,0 0,0.1 0,0.1 0.2,0.4 0.3,0.7 0.5,0.9 0.8,0.8 2.1,1.4 3.2,1.5 1,0.1 1.7,0 3.1,-1.3 1.3,-1.3 1.1,-2.2 1.9,-2.3 0.9,-0.1 1.4,-0.4 2.6,0 1.2,0.5 3.5,1.5 4,2.3 0.5,0.7 1.2,0.8 1.2,0.8 0,0 1,-1.1 0,-2.1 -1,-1 -3.5,-2.2 -3.2,-3.4 0.3,-1.2 0.9,-2.4 1.8,-3 0.9,-0.6 1.5,-0.9 2.4,-1.4 0.9,-0.4 1.6,-0.9 1.6,-0.9 l 1.1,1 1.4,0.5 c 0,0 0.7,-0.1 -0.1,-1.2 -0.8,-1.1 -0.5,-0.4 -1.1,-1.7 l -0.6,-1.3 c 0,0 2.8,-0.5 3.7,-0.4 0.9,0.1 2,0.5 2,0.5 l 1.6,1.2 1.3,1 c 0,0 0.1,1.1 1,1 0,0 0.6,0.3 0.9,0.3 0.3,0 0.9,-0.5 0.9,-0.5 l -1,-1.4 c 0,0 -1.7,-1.1 -2.2,-1.4 z m 8.8,3.6 C 76,50 75.5,49.6 75.5,49.6 L 75.1,50 c 0,0 -0.1,0.2 -1.1,0 -1,-0.1 -1.3,-0.2 -1.3,-0.2 0,0 0.3,0.4 0.4,0.5 0.1,0.1 0.2,0.5 0.5,0.6 0.2,0.1 0.7,0.3 1.6,0.6 0.9,0.3 1.3,0.5 1.3,0.5 0,0 0.4,-0.9 0.4,-1 0,0 -0.5,-0.5 -0.7,-0.8 z m 13.3,5.9 C 89.2,55.5 89.1,54.9 87.7,54.4 86.3,54 86.1,54 85,53.9 83.9,53.8 83.4,53.8 82.3,53.6 81.2,53.4 81.2,53.2 80.4,53 c -0.8,-0.2 -1.1,-0.3 -1.5,-0.4 -0.4,0 -0.9,-0.2 -1.1,0 -0.1,0.2 0.2,0.3 0.2,0.3 0,0 1.9,1.2 2.4,1.3 0.5,0.1 2.9,1.1 3.3,1.5 0.4,0.4 3.3,1.5 4,1.5 0.6,0 0.8,0.1 1.3,-0.4 0.6,-0.4 0.8,-0.1 0.5,-0.7 z M 80.1,10.2 C 81,10 81.1,9.5 81.3,9.1 81.5,8.7 81.4,8.9 81.1,8.5 80.8,8.1 80.7,8.1 80.3,8.1 79.9,8.1 78,8.7 77.7,9 c -0.3,0.3 -1.8,0.9 -2.2,0.9 -0.3,0.1 -1.6,0.8 -1.6,0.8 0,0 -0.2,0.1 -0.1,0.2 0.1,0.2 0.4,0.1 0.7,0.1 0.3,0 0.4,-0.1 0.9,-0.2 0.5,-0.1 0.5,-0.2 1.2,-0.3 0.7,-0.1 1,-0.1 1.7,-0.1 0.8,0 0.9,0 1.8,-0.2 z m -10.3,4.1 0.3,0.3 c 0,0 0.3,-0.3 0.4,-0.5 0.1,-0.2 0.3,-0.6 0.3,-0.7 0,-0.1 -0.4,-0.6 -0.4,-0.6 0,0 -0.3,0.2 -0.8,0.5 -0.5,0.3 -0.8,0.5 -0.9,0.6 -0.1,0.1 -0.2,0.4 -0.2,0.5 0,0.1 -0.2,0.4 -0.2,0.4 0,0 0.2,-0.1 0.8,-0.3 0.6,-0.3 0.7,-0.2 0.7,-0.2 z M 52.6,6.8 C 53.3,6.3 53.8,5.4 54.4,5.1 54.5,4.4 55.2,4.5 55.4,3.8 56,2.1 55.7,0.7 54.7,0 c -1.1,-0.2 -2.9,0.4 -4.2,1.7 -0.8,1 -0.7,1.8 -0.9,2.8 0,1.2 0.8,1.7 1.4,2.4 0.4,0.3 1.1,0 1.6,-0.1 z M 3.2,13.5 C 2.7,13.4 2,13.4 1.7,13.4 c -0.3,0 -0.9,0.9 -0.9,1.1 0,0.2 -0.1,0.9 -0.3,1 -0.3,0.1 -0.5,0.3 -0.3,0.8 0,0.4 0.7,0.7 0.7,0.7 0,0 0.6,0.5 1.3,0.6 C 2.9,17.8 3.3,18 4,17.2 4.7,16.5 4.7,16 4.8,15.5 5,15 4.4,14.2 4.4,14.2 c 0,0 -0.8,-0.6 -1.2,-0.7 z m 62.9,40.6 c -1.2,-0.8 -1.3,-0.6 -1.9,-1.1 -0.6,-0.4 -1.1,-0.8 -1.3,-1.1 -0.2,-0.3 -0.7,-0.8 -0.7,-0.8 -0.2,0 -0.7,0.3 -0.5,0.6 0.2,0.3 0.6,0.6 1,0.9 0.3,0.3 1,1 1.2,1.1 0.2,0.1 1.1,0.9 1.7,1.6 0.6,0.7 1,1.1 1.7,1 0.6,-0.1 1.5,-0.4 1,-0.9 -0.5,-0.4 -1,-0.4 -2.2,-1.3 z"
   mask="url(#mask-2_00000126324479881949365190000004908624486108098729_)" />
			</g>
		</g>
	</g>
</g>
</svg>
